<svg xmlns="http://www.w3.org/2000/svg" width="56.494" height="56.494" viewBox="0 0 56.494 56.494">
  <g id="Icon_feather-instagram" data-name="Icon feather-instagram" transform="translate(2.5 2.5)">
    <path id="Path_1" data-name="Path 1" d="M15.874,3H41.621A12.874,12.874,0,0,1,54.494,15.874V41.621A12.874,12.874,0,0,1,41.621,54.494H15.874A12.874,12.874,0,0,1,3,41.621V15.874A12.874,12.874,0,0,1,15.874,3Z" transform="translate(-3 -3)" fill="none" stroke="#ff68a5" stroke-linecap="round" stroke-linejoin="round" stroke-width="5"/>
    <path id="Path_2" data-name="Path 2" d="M32.551,20.723a10.3,10.3,0,1,1-8.677-8.677,10.3,10.3,0,0,1,8.677,8.677Z" transform="translate(3.495 3.402)" fill="none" stroke="#ff68a5" stroke-linecap="round" stroke-linejoin="round" stroke-width="5"/>
    <path id="Path_3" data-name="Path 3" d="M26.25,9.75h0" transform="translate(13.658 1.836)" fill="none" stroke="#ff68a5" stroke-linecap="round" stroke-linejoin="round" stroke-width="5"/>
  </g>
</svg>
