<svg width="45" height="56" viewBox="0 0 45 56" fill="none" xmlns="http://www.w3.org/2000/svg">
<path d="M5.625 11.2H16.2501C19.7019 11.2 22.5001 13.9861 22.5001 17.4225V38.5778C22.5001 42.0142 19.7019 44.8 16.2501 44.8H13.125C10.0184 44.8 7.5 47.3072 7.5 50.4C7.5 53.4928 10.0184 56 13.125 56H31.42C32.9119 56 34.3426 55.41 35.3975 54.3598L39.375 50.4C41.4508 48.3335 39.9806 44.8 37.0451 44.8C35.2253 44.8 33.75 43.3313 33.75 41.5196L33.7501 39.1999C33.7501 36.1071 36.2685 33.6 39.375 33.6C42.4816 33.6 45 31.0928 45 28C45 24.9072 42.4816 22.4 39.3751 22.4C36.2685 22.4 33.7501 19.8928 33.7501 16.8C33.7501 13.7072 36.2685 11.2 39.3751 11.2C42.4816 11.2 45 8.69279 45 5.60004C45 2.50724 42.4816 0 39.375 0H5.625C2.5184 0 0 2.50721 0 5.6C0 8.69279 2.5184 11.2 5.625 11.2Z" fill="#0B2422"/>
</svg>
