<svg width="20" height="20" viewBox="0 0 20 20" fill="none" xmlns="http://www.w3.org/2000/svg">
<path d="M20 9.74081C20 8.41581 18.3408 7.15998 15.7967 6.38165C16.3842 3.78915 16.1233 1.72581 14.9733 1.06498C14.6947 0.908913 14.3793 0.830356 14.06 0.83748V1.74581C14.2475 1.74581 14.3983 1.78331 14.525 1.85248C15.0792 2.17081 15.32 3.38081 15.1325 4.93831C15.0875 5.32165 15.0142 5.72498 14.9242 6.13665C14.0722 5.93134 13.2075 5.78296 12.3358 5.69248C11.8165 4.97605 11.25 4.2951 10.64 3.65415C11.9692 2.41915 13.2167 1.74248 14.065 1.74248V0.833313C12.9433 0.833313 11.4758 1.63248 9.99167 3.01831C8.50833 1.64165 7.04 0.84998 5.91917 0.84998V1.75831C6.76333 1.75831 8.015 2.43165 9.34417 3.65831C8.77333 4.25831 8.2025 4.93831 7.66 5.69248C6.78653 5.78196 5.92029 5.93176 5.0675 6.14081C4.97737 5.75064 4.90645 5.35628 4.855 4.95915C4.66333 3.40081 4.9 2.19081 5.45083 1.86915C5.5725 1.79581 5.73167 1.76248 5.91917 1.76248V0.854146C5.5775 0.854146 5.26667 0.92748 4.99833 1.08165C3.8525 1.74248 3.59583 3.80081 4.18667 6.38581C1.65083 7.16915 0 8.41998 0 9.74081C0 11.0658 1.65917 12.3216 4.20333 13.0991C3.61583 15.6925 3.87667 17.7558 5.02667 18.4158C5.29167 18.5708 5.60167 18.6441 5.94333 18.6441C7.065 18.6441 8.5325 17.845 10.0167 16.4591C11.5 17.8366 12.9675 18.6275 14.0892 18.6275C14.4109 18.6343 14.7287 18.5555 15.01 18.3991C16.1558 17.7391 16.4125 15.6808 15.8217 13.0958C18.3492 12.3175 20 11.0616 20 9.74081ZM14.6917 7.02165C14.5333 7.56653 14.3498 8.10377 14.1417 8.63165C13.801 7.96894 13.4269 7.32395 13.0208 6.69915C13.6 6.78498 14.1583 6.89081 14.6925 7.02165H14.6917ZM12.825 11.3633C12.5198 11.8962 12.192 12.4158 11.8425 12.9208C10.6194 13.0286 9.3892 13.03 8.16583 12.925C7.46412 11.9226 6.85045 10.8615 6.33167 9.75331C6.84965 8.64257 7.46072 7.57765 8.15833 6.56998C9.38116 6.46195 10.6111 6.46028 11.8342 6.56498C12.1725 7.04998 12.5033 7.56831 12.8208 8.11498C13.1308 8.64831 13.4125 9.18998 13.6692 9.73665C13.4097 10.2899 13.128 10.8326 12.825 11.3633ZM14.1417 10.8333C14.3617 11.3791 14.55 11.9258 14.7042 12.4558C14.1708 12.5866 13.6075 12.6966 13.025 12.7816C13.4294 12.1512 13.8021 11.5009 14.1417 10.8333ZM10.0083 15.1833C9.62917 14.7916 9.25 14.3558 8.875 13.8783C9.24167 13.895 9.61667 13.9075 9.99583 13.9075C10.3792 13.9075 10.7583 13.8991 11.1292 13.8783C10.7625 14.3558 10.3833 14.7916 10.0083 15.1833ZM6.975 12.7816C6.41312 12.7002 5.8553 12.5929 5.30333 12.46C5.45417 11.9341 5.64167 11.3916 5.85333 10.85C6.02083 11.175 6.19667 11.5016 6.38833 11.8283C6.58 12.1541 6.775 12.4725 6.975 12.7816ZM9.9875 4.29831C10.3667 4.68998 10.7458 5.12581 11.1208 5.60331C10.7542 5.58665 10.3792 5.57415 10 5.57415C9.61667 5.57415 9.2375 5.58248 8.86667 5.60331C9.23333 5.12581 9.6125 4.68998 9.9875 4.29831ZM6.97083 6.69998C6.56656 7.32909 6.19387 7.97795 5.85417 8.64415C5.64018 8.11286 5.45245 7.57137 5.29167 7.02165C5.825 6.89498 6.38833 6.78498 6.97083 6.69998ZM3.28167 11.8033C1.83833 11.1883 0.905 10.3808 0.905 9.74081C0.905 9.10081 1.83833 8.28915 3.28167 7.67831C3.63167 7.52748 4.015 7.39248 4.41083 7.26665C4.64333 8.06498 4.94917 8.89665 5.3275 9.74915C4.9703 10.551 4.66821 11.3762 4.42333 12.2191C4.03621 12.0993 3.6552 11.9605 3.28167 11.8033ZM5.475 17.6283C4.92083 17.3116 4.68 16.1 4.8675 14.5433C4.9125 14.16 4.98583 13.7558 5.07583 13.3441C5.87417 13.54 6.74667 13.6908 7.66417 13.7891C8.18348 14.5056 8.75002 15.1865 9.36 15.8275C8.03083 17.0625 6.78333 17.7391 5.935 17.7391C5.77495 17.7409 5.61694 17.7031 5.475 17.6291V17.6283ZM15.145 14.5225C15.3367 16.08 15.1 17.2908 14.5492 17.6125C14.4275 17.6858 14.2683 17.7183 14.0808 17.7183C13.2367 17.7183 11.985 17.0458 10.6558 15.8183C11.2633 15.18 11.826 14.5006 12.34 13.785C13.2135 13.6955 14.0797 13.5457 14.9325 13.3366C15.0267 13.7483 15.0992 14.1433 15.145 14.5225ZM16.7142 11.8033C16.3642 11.9541 15.9808 12.0891 15.585 12.215C15.3358 11.3677 15.0296 10.5383 14.6683 9.73248C15.0433 8.88498 15.3442 8.05748 15.5725 7.26248C15.9609 7.38274 16.3432 7.52151 16.7183 7.67831C18.1617 8.29331 19.095 9.10081 19.095 9.74081C19.0908 10.3808 18.1575 11.1925 16.7142 11.8033Z" fill="#E9FFFA"/>
<path d="M9.99578 11.6042C10.49 11.6042 10.9639 11.4079 11.3134 11.0584C11.6628 10.709 11.8591 10.235 11.8591 9.74084C11.8591 9.24665 11.6628 8.7727 11.3134 8.42326C10.9639 8.07382 10.49 7.8775 9.99578 7.8775C9.50159 7.8775 9.02765 8.07382 8.6782 8.42326C8.32876 8.7727 8.13245 9.24665 8.13245 9.74084C8.13245 10.235 8.32876 10.709 8.6782 11.0584C9.02765 11.4079 9.50159 11.6042 9.99578 11.6042Z" fill="#E9FFFA"/>
</svg>
